PathFileType	4	(X/Y/Z)	C:\Users\Caesar\Desktop\毕业设计\1-评估老年人缺少的力\Data\s4\S4_T_02_fixed.trc	Maker trajectories (.TRC) by Lee-Son ToolBox																																																																																				
DataRate	CameraRate	NumFrames	NumMarkers	Units	OrigDataRate	OrigDataStartFrame	OrigNumFrames																																																																																	
100	100	5	29	mm	100	751	1000																																																																																	
Frame#	Time	Unlabeled27			Unlabeled48			Unlabeled26			HEAD			C7			T10			STERN			LSHO			LELB			RSHO			RELB			LASI			RASI			LPSI			RPSI			LHIP			LTHI			LKNE			LTIB			LANK			LHEE			LTOE			RHIP			RTHI			RKNE			RTIB			RANK			RHEE			RTOE		
		X1	Y1	Z1	X2	Y2	Z2	X3	Y3	Z3	X4	Y4	Z4	X5	Y5	Z5	X6	Y6	Z6	X7	Y7	Z7	X8	Y8	Z8	X9	Y9	Z9	X10	Y10	Z10	X11	Y11	Z11	X12	Y12	Z12	X13	Y13	Z13	X14	Y14	Z14	X15	Y15	Z15	X16	Y16	Z16	X17	Y17	Z17	X18	Y18	Z18	X19	Y19	Z19	X20	Y20	Z20	X21	Y21	Z21	X22	Y22	Z22	X23	Y23	Z23	X24	Y24	Z24	X25	Y25	Z25	X26	Y26	Z26	X27	Y27	Z27	X28	Y28	Z28	X29	Y29	Z29
																																																																																								
751	7.5	764.829	168.315	1090.77	774.238	168.654	1794.94	214.438	171.21	1098.47	591.772	1657.14	1435.61	397.683	1490.07	1454.99	338.744	1359.38	1455.95	555.814	1372.83	1451.24	465.718	1486.2	1313.09	555.044	1212.94	1187.75	473.394	1475.09	1612.44	575.978	1182.15	1717.35	462.506	1025.1	1316.37	510.714	1023.3	1549.59	281.92	1094.62	1409.7	305.397	1096.56	1532.9	360.076	985.198	1285.3	391.064	748.957	1305.93	365.505	610.101	1318.42	174.921	447.799	1326.46	75.5436	409.674	1332.03	22.0161	423.198	1330.8	90.756	225.42	1382.03	442.203	998.187	1618.21	501.731	864.038	1589.48	505.582	625.321	1561.34	512.176	506.048	1547.69	434.192	273.7	1521	390.742	240.629	1519.1	604.907	229.287	1483.24
752	7.51	764.826	168.326	1090.77	774.24	168.671	1794.94	214.398	171.278	1098.43	591.653	1658.71	1436.42	397.219	1491.81	1455.67	338.357	1361.07	1456.68	555.426	1374.94	1451.96	465.248	1487.86	1313.76	555.556	1215.09	1188.55	472.912	1476.81	1613.16	576.194	1183.89	1717.02	462.531	1027.49	1316.88	510.278	1024.54	1550.15	281.741	1096.33	1410.36	305.178	1098.13	1533.56	360.37	987.194	1285.68	397.321	750.703	1306.41	375.534	611.501	1319.1	185.16	449.674	1325.99	85.5306	411.474	1330.93	31.6446	424.303	1329.2	103.163	227.815	1380.79	441.496	999.092	1618.55	498.955	863.842	1590.11	498.773	624.986	1562.14	503.895	505.709	1548.49	423.846	273.95	1521.1	380.085	241.002	1519.28	594.28	228.873	1483.54
753	7.52	764.824	168.339	1090.77	774.242	168.689	1794.95	214.361	171.335	1098.39	591.417	1660.25	1437.13	396.595	1493.56	1456.34	337.852	1362.77	1457.44	554.789	1377.05	1452.6	464.597	1489.53	1314.39	556.105	1217.31	1189.38	472.303	1478.58	1613.86	576.404	1185.73	1716.62	462.532	1029.95	1317.42	509.755	1025.77	1550.68	281.561	1098.14	1410.85	304.831	1099.76	1534.08	360.692	989.307	1285.93	403.463	752.76	1306.77	385.394	613.297	1319.72	195.72	451.179	1325.5	95.9568	412.486	1329.86	41.6356	424.266	1327.76	117.409	229.666	1379.23	440.661	1000.04	1618.81	496.044	863.741	1590.5	491.637	624.73	1562.89	495.333	505.49	1549.24	413.47	274.231	1521.21	369.435	241.325	1519.36	583.656	228.449	1483.8
754	7.53	764.822	168.354	1090.77	774.244	168.708	1794.95	214.328	171.373	1098.34	591.063	1661.76	1437.73	395.831	1495.31	1457.01	337.244	1364.44	1458.23	553.925	1379.12	1453.19	463.785	1491.19	1314.99	556.675	1219.59	1190.26	471.602	1480.37	1614.56	576.601	1187.63	1716.17	462.528	1032.43	1318.01	509.13	1027.01	1551.26	281.365	1099.99	1411.13	304.342	1101.4	1534.42	361.07	991.492	1286.04	409.475	755.078	1307	395.043	615.435	1320.27	206.56	452.279	1324.98	106.796	412.698	1328.84	52.0028	423.084	1326.46	133.341	230.98	1377.4	439.672	1001.03	1619	493.003	863.7	1590.71	484.186	624.541	1563.6	486.509	505.382	1549.95	403.056	274.555	1521.34	358.791	241.605	1519.35	573.029	228.02	1484.02
755	7.54	764.823	168.367	1090.77	774.246	168.728	1794.96	214.303	171.391	1098.31	590.59	1663.22	1438.22	394.95	1497.02	1457.68	336.544	1366.07	1459.05	552.87	1381.13	1453.74	462.829	1492.81	1315.59	557.254	1221.91	1191.18	470.84	1482.15	1615.24	576.783	1189.54	1715.66	462.529	1034.9	1318.66	508.392	1028.25	1551.89	281.134	1101.84	1411.18	303.713	1103.01	1534.57	361.508	993.707	1286.02	415.337	757.613	1307.1	404.44	617.866	1320.74	217.652	452.953	1324.44	118.036	412.107	1327.88	62.7822	420.767	1325.27	150.808	231.817	1375.4	438.51	1002.01	1619.15	489.823	863.677	1590.81	476.434	624.403	1564.28	477.442	505.376	1550.62	392.604	274.937	1521.5	348.153	241.876	1519.27	562.392	227.594	1484.21
